<?xml version="1.0" encoding="UTF-8" standalone="no"?>
<svg
   xmlns:dc="http://purl.org/dc/elements/1.1/"
   xmlns:cc="http://creativecommons.org/ns#"
   xmlns:rdf="http://www.w3.org/1999/02/22-rdf-syntax-ns#"
   xmlns:svg="http://www.w3.org/2000/svg"
   xmlns="http://www.w3.org/2000/svg"
   xmlns:sodipodi="http://sodipodi.sourceforge.net/DTD/sodipodi-0.dtd"
   xmlns:inkscape="http://www.inkscape.org/namespaces/inkscape"
   width="702.06"
   height="835.81067"
   version="1.1"
   viewBox="0 0 702.06213 835.80809"
   xml:space="preserve"
   id="svg2"
   inkscape:version="0.91 r13725"
   sodipodi:docname="spectre.svg"
   inkscape:export-filename="/home/mschwarz/Documents/OutOfOrder/shirt/spectre.svg.png"
   inkscape:export-xdpi="807.59918"
   inkscape:export-ydpi="807.59918"><defs
     id="defs82" /><sodipodi:namedview
     pagecolor="#ffffff"
     bordercolor="#666666"
     borderopacity="1"
     objecttolerance="10"
     gridtolerance="10"
     guidetolerance="10"
     inkscape:pageopacity="0"
     inkscape:pageshadow="2"
     inkscape:window-width="1920"
     inkscape:window-height="1135"
     id="namedview80"
     showgrid="false"
     inkscape:zoom="0.59424124"
     inkscape:cx="-41.058684"
     inkscape:cy="412.06984"
     inkscape:window-x="1920"
     inkscape:window-y="0"
     inkscape:window-maximized="1"
     inkscape:current-layer="g60"
     fit-margin-top="0"
     fit-margin-left="0"
     fit-margin-right="0"
     fit-margin-bottom="0"
     showguides="true"
     inkscape:guide-bbox="true" /><metadata
     id="metadata4"><rdf:RDF><cc:Work
         rdf:about=""><dc:format>image/svg+xml</dc:format><dc:type
           rdf:resource="http://purl.org/dc/dcmitype/StillImage" /><dc:title /></cc:Work></rdf:RDF></metadata><style
     type="text/css"
     id="style6">
	.st0{display:none;}
	.st1{fill-opacity:0.35;}
	.st2{display:inline;fill:#FFFFFF;stroke:#036994;stroke-width:19;stroke-miterlimit:10;}
	.st3{display:inline;}
	.st4{fill:none;stroke:#036994;stroke-width:19;stroke-miterlimit:10;}
	.st5{display:inline;fill:none;stroke:#036994;stroke-width:19;stroke-miterlimit:10;}
	.st6{display:inline;fill:#FFFFFF;stroke:#036994;stroke-width:22.3391;stroke-miterlimit:10;}
	.st7{fill-opacity:0.3;}
	.st8{fill:#FFFFFF;stroke:#036994;stroke-miterlimit:10;}
	.st9{display:inline;fill:#FFFFFF;stroke:#036994;stroke-width:15.2803;stroke-miterlimit:10;}
	.st10{fill:#FFFFFF;stroke:#036994;stroke-width:19;stroke-miterlimit:10;}
	.st11{fill:none;stroke:#036994;stroke-width:19;stroke-linecap:round;stroke-miterlimit:10;}
	.st12{display:inline;fill:#FFFFFF;stroke:#036994;stroke-width:12;stroke-miterlimit:10;}
	.st13{fill:#FFFFFF;}
	.st14{fill:none;stroke:#036994;stroke-width:14.4734;stroke-linecap:round;stroke-miterlimit:10;}
	.st15{fill:#FFFFFF;stroke:#036994;stroke-width:14.4734;stroke-linecap:round;stroke-linejoin:round;stroke-miterlimit:10;}
</style><g
     class="st0"
     transform="translate(-65.664003,-87.075322)"
     display="none"
     id="g8"
     style="display:none"><title
       id="title10">Artboard 4</title><path
       class="st1"
       d="m 612.4,85.7 -424.7,0 c -35.2,0 -63.7,28.6 -63.6,63.8 l 0,50.5 -5.4,0 c -19.6,0 -35.5,15.9 -35.5,35.5 l 0,25 c 0,19.6 15.9,35.5 35.5,35.5 l 5.4,0 0,56.2 -5.4,0 c -19.6,0 -35.5,15.9 -35.5,35.5 l 0,25 c 0,19.6 15.9,35.5 35.5,35.5 l 5.4,0 0,50.6 c 0.1,35.1 28.5,63.6 63.6,63.6 l 3.3,0 10.2,34.7 c 5.8,19.5 23.7,32.9 44.1,33 l 32.2,0 c 20.4,-0.1 38.3,-13.5 44.1,-33 l 10.2,-34.6 139.6,0 10.2,34.7 c 5.9,19.5 23.8,32.8 44.1,32.9 l 32.3,0 c 20.4,-0.1 38.3,-13.5 44.1,-33 l 10.2,-34.7 c 35.2,0 63.6,-28.5 63.6,-63.7 l 0,-349.3 C 676,114.3 647.5,85.7 612.4,85.7 Z m -499.1,174.8 0,-25 c 0,-2.9 2.4,-5.3 5.3,-5.3 l 69.6,0 0,35.5 -69.6,0 c -2.9,0.1 -5.3,-2.3 -5.3,-5.2 z m 41,35.5 33.8,0 0,56.2 -33.8,0 z m -41,116.7 0,-25 c 0,-2.9 2.4,-5.3 5.3,-5.3 l 69.6,0 0,35.6 -69.6,0 c -2.9,0 -5.3,-2.4 -5.3,-5.3 z m 179.4,175.9 c -2,6.7 -8.1,11.3 -15.1,11.4 l -32.2,0 c -7,0 -13.1,-4.6 -15.1,-11.3 l -7.7,-26.1 77.9,0 z m 265.4,11.3 -32.2,0 c -7,0 -13.1,-4.6 -15.1,-11.3 l -7.7,-26.1 77.9,0 -7.7,26 c -2.1,6.8 -8.2,11.4 -15.2,11.4 z m 87.6,-101.1 c 0,18.4 -15,33.4 -33.4,33.4 l -424.6,0 c -18.4,0 -33.4,-15 -33.4,-33.4 l 0,-50.6 33.8,0 0,33.2 c 0,8.4 6.8,15.1 15.1,15.1 l 393.3,0 c 8.4,0 15.1,-6.8 15.1,-15.1 l 0,-314.5 c 0,-8.4 -6.8,-15.1 -15.1,-15.1 l -393.3,0 c -8.4,0 -15.1,6.8 -15.1,15.1 l 0,33.1 -33.8,0 0,-50.6 c 0,-18.5 14.9,-33.5 33.4,-33.5 l 424.7,0 c 18.5,0 33.4,15 33.4,33.5 l 0,349.4 z m -64,-138.3 -45.9,0 c -0.3,0 -0.5,-0.2 -0.5,-0.5 l 0,-68.1 c 0,-0.3 0.2,-0.5 0.5,-0.5 l 45.9,0 z m 0,-99.3 -45.9,0 c -17,0 -30.8,13.8 -30.8,30.8 l 0,68 c 0,17 13.8,30.8 30.8,30.8 l 45.9,0 0,75.6 -363,0 0,-284.4 363,0 z"
       id="path12"
       inkscape:connector-curvature="0"
       style="fill-opacity:0.35" /><rect
       class="st2"
       x="136"
       y="99"
       width="528"
       height="439"
       display="inline"
       stroke-miterlimit="10"
       id="rect14"
       style="display:inline;fill:#ffffff;stroke:#036994;stroke-width:19;stroke-miterlimit:10" /><g
       class="st3"
       display="inline"
       id="g16"
       style="display:inline"><rect
         class="st4"
         x="205"
         y="168"
         width="391"
         height="314"
         stroke-miterlimit="10"
         id="rect18"
         style="fill:none;stroke:#036994;stroke-width:19;stroke-miterlimit:10" /></g><rect
       class="st5"
       x="521.5"
       y="283"
       width="74"
       height="85.5"
       display="inline"
       stroke-miterlimit="10"
       id="rect20"
       style="display:inline;fill:none;stroke:#036994;stroke-width:19;stroke-miterlimit:10" /><rect
       class="st2"
       x="101"
       y="368.5"
       width="100.5"
       height="58.5"
       display="inline"
       stroke-miterlimit="10"
       id="rect22"
       style="display:inline;fill:#ffffff;stroke:#036994;stroke-width:19;stroke-miterlimit:10" /><rect
       class="st2"
       x="102"
       y="214.2"
       width="100.5"
       height="58.5"
       display="inline"
       stroke-miterlimit="10"
       id="rect24"
       style="display:inline;fill:#ffffff;stroke:#036994;stroke-width:19;stroke-miterlimit:10" /><polygon
       class="st6"
       points="300.4,614.3 222.5,614.3 210.5,540.3 312.5,540.3 "
       display="inline"
       stroke-miterlimit="10"
       id="polygon26"
       style="display:inline;fill:#ffffff;stroke:#036994;stroke-width:22.33909988;stroke-miterlimit:10" /><polygon
       class="st6"
       points="574.2,614.3 496.3,614.3 484.3,540.3 586.3,540.3 "
       display="inline"
       stroke-miterlimit="10"
       id="polygon28"
       style="display:inline;fill:#ffffff;stroke:#036994;stroke-width:22.33909988;stroke-miterlimit:10" /></g><g
     class="st0"
     transform="translate(-65.664003,-87.075322)"
     display="none"
     id="g30"
     style="display:none"><path
       class="st7"
       d="m 254.1,378.1 c 4.2,7.2 13.4,9.7 20.6,5.6 l 31.8,-18.2 c 7.5,7.5 16.8,12.9 27.1,15.6 l 0,36.7 c 0,8.4 6.8,15.1 15.1,15.1 8.3,0 15.1,-6.8 15.1,-15.1 l 0,-36.8 c 10.3,-2.7 19.6,-8.1 27.1,-15.6 l 31.8,18.2 c 7.3,4.1 16.5,1.6 20.6,-5.7 4.1,-7.2 1.6,-16.3 -5.5,-20.5 L 406,339.2 c 2.9,-10.2 2.9,-21.1 0,-31.3 l 31.8,-18.2 c 7.2,-4.2 9.6,-13.5 5.4,-20.7 -4.2,-7.1 -13.3,-9.6 -20.5,-5.5 L 391,281.7 c -7.5,-7.5 -16.8,-12.9 -27.1,-15.6 l 0,-36.7 c 0,-8.4 -6.8,-15.1 -15.1,-15.1 -8.3,0 -15.1,6.8 -15.1,15.1 l 0,36.7 c -10.3,2.7 -19.6,8.1 -27.1,15.6 l -31.8,-18.2 c -7.3,-4.1 -16.5,-1.6 -20.6,5.7 -4.1,7.2 -1.6,16.3 5.5,20.5 l 31.8,18.2 c -2.9,10.2 -2.9,21.1 0,31.3 l -31.8,18.2 c -7.3,4.1 -9.8,13.4 -5.7,20.6 0,0 0,0.1 0.1,0.1 z m 94.6,-83.8 c 16.1,0 29.2,13.1 29.2,29.2 0,16.1 -13.1,29.2 -29.2,29.2 -16.1,0 -29.2,-13.1 -29.2,-29.2 0,-16.1 13.1,-29.2 29.2,-29.2 z"
       id="path32"
       inkscape:connector-curvature="0"
       style="fill-opacity:0.3" /><g
       class="st3"
       display="inline"
       id="g34"
       style="display:inline"><path
         class="st8"
         d="m 1425.2,302.4 c -23.4,-0.6 -21.5,-18.7 -21.5,-18.7 l -1.5,-172.7 187.5,-0.3 -0.1,177.3 c 0,0 1.4,20.8 -18.8,20.7 -20.6,-0.1 -18.4,-19 -18.4,-19 l 0,-52.3 c 0,0 1.6,-12 -15.5,-12.2 -17.1,-0.2 -17.7,9.9 -17.7,9.9 l -0.1,92.5 c 0,0 2.2,15.7 -18.4,15.7 -20.6,0 -18.7,-15.9 -18.7,-15.9 l 0,-118 c 0,0 0.6,-16.3 -17.7,-16.3 -18.4,0 -18.4,16.3 -18.4,16.3 l -0.6,74.5 c 0,0 1.9,18 -21.5,18.7"
         stroke-miterlimit="10"
         id="path36"
         inkscape:connector-curvature="0"
         style="fill:#ffffff;stroke:#036994;stroke-miterlimit:10" /><path
         class="st8"
         d="m 1061.6,104.9 1.1,122.9 c 0,0 -2.9,17.3 19.7,18.3 22.6,-1 20.9,-18.3 20.9,-18.3 l 0.6,-74.1 c 0,0 0,-16.2 18.4,-16.2 18.4,0 17.7,16.2 17.7,16.2 l 0,117.4 c 0,0 -1.9,15.8 18.7,15.8 20.6,0 18.4,-15.6 18.4,-15.6 l 0.1,-91.9 c 0,0 0.6,-10 17.7,-9.8 17.1,0.2 15.5,12.2 15.5,12.2 l 0,52.1 c 0,0 0.2,18.5 18.4,18.9 25.4,-0.8 24.1,-38.1 24.1,-38.1 0,0 -1.3,21.8 16,22.3 13.7,0.2 12.4,-19.9 12.4,-19.9 l 0.1,-49.5 c 0,0 -2.7,-22.5 13.7,-22.5 16.4,0 17.6,22.5 17.6,22.5 l 0,114 c 0,0 2.5,18 21.3,19.5 18.8,1.5 20.1,-16.5 20.1,-16.5 l 0.9,-174.5 z"
         stroke-miterlimit="10"
         id="path38"
         inkscape:connector-curvature="0"
         style="fill:#ffffff;stroke:#036994;stroke-miterlimit:10" /><polygon
         class="st8"
         points="1224,124.4 1347.8,117.2 1348,91.9 1409,96.9 1409.3,119.5 1582.5,131.4 1582.5,85.4 1068.5,93.9 1068.5,119.4 "
         stroke-miterlimit="10"
         id="polygon40"
         style="fill:#ffffff;stroke:#036994;stroke-miterlimit:10" /></g><path
       class="st9"
       d="m 298.6,406.2 0,103 c 0,0 4,16.2 17.3,15 13,-1.2 14.4,-17 14.4,-17 l 0,-46 c 0,0 1.8,-13 13.7,-12 11.8,1 11.1,14 11.1,14 l 0,100 c 0,0 1.2,19 15,19 13.8,0 13.1,-20 13.1,-20 l -0.3,-111.8 c 0,0 -0.9,-17.7 12.4,-17.7 5.1,0 11.7,5.2 12,13 0.7,17 1,39.5 1,39.5 0,0 -2.5,22.5 13,22 14.9,-0.5 14.7,-19.3 14.7,-19.3 l 0.6,-114.3 -24.8,23.9 -35.3,18.7 -26.6,3.7 -25.5,-2.8 z"
       display="inline"
       stroke-miterlimit="10"
       id="path42"
       inkscape:connector-curvature="0"
       style="display:inline;fill:#ffffff;stroke:#036994;stroke-width:15.28030014;stroke-miterlimit:10" /><g
       class="st3"
       display="inline"
       stroke-miterlimit="10"
       id="g44"
       style="display:inline;stroke:#036994;stroke-width:19;stroke-miterlimit:10"><circle
         class="st10"
         cx="348.70001"
         cy="323.5"
         r="96.699997"
         id="circle46"
         style="fill:#ffffff;stroke:#036994;stroke-width:19;stroke-miterlimit:10" /><line
         class="st11"
         x1="348.70001"
         x2="348.70001"
         y1="228.39999"
         y2="418.60001"
         id="line48"
         style="fill:none;stroke:#036994;stroke-width:19;stroke-linecap:round;stroke-miterlimit:10" /><line
         class="st11"
         x1="431"
         x2="266.29999"
         y1="276"
         y2="371"
         id="line50"
         style="fill:none;stroke:#036994;stroke-width:19;stroke-linecap:round;stroke-miterlimit:10" /><line
         class="st11"
         x1="266.29999"
         x2="431"
         y1="276"
         y2="371"
         id="line52"
         style="fill:none;stroke:#036994;stroke-width:19;stroke-linecap:round;stroke-miterlimit:10" /><circle
         class="st10"
         cx="348.70001"
         cy="323.5"
         r="50"
         id="circle54"
         style="fill:#ffffff;stroke:#036994;stroke-width:19;stroke-miterlimit:10" /></g><ellipse
       class="st12"
       cx="426"
       cy="590.79999"
       rx="15.2"
       ry="23.4"
       display="inline"
       stroke-miterlimit="10"
       id="ellipse56"
       style="display:inline;fill:#ffffff;stroke:#036994;stroke-width:12;stroke-miterlimit:10" /><ellipse
       class="st12"
       cx="1052.9"
       cy="739.40002"
       rx="15.2"
       ry="23.4"
       display="inline"
       stroke-miterlimit="10"
       id="ellipse58"
       style="display:inline;fill:#ffffff;stroke:#036994;stroke-width:12;stroke-miterlimit:10" /></g><g
     transform="translate(-65.664003,-87.075322)"
     id="g60"><path
       class="st13"
       d="m 555.30044,541.1 c 0,0 9.6,47.7 46.1,50.9 0,0 -38.6,63.8 -105.1,-3.2 0,0 -34.8,83.1 -89,11.3 0,0 -47.7,77.7 -92.7,1.1 0,0 -46.6,68.6 -88.4,3.8 0,0 -56.3,62.2 -104,-5.9 0,0 55.7,-8 60,-40.7 4.3,-32.7 -1.6,-278.7 -1.6,-278.7 0,0 22.5,-176.9 178.5,-186 156,-9.1 188.7,159.2 188.7,159.2 z"
       id="path62"
       style="fill:none"
       inkscape:connector-curvature="0" /><path
       d="m 342.50044,88.8 c 41.7,-6 85.1,3.8 121.1,26.8 31,19.6 56.5,48.7 73.4,82.5 15.3,30.4 23.6,64.6 24.4,99 0.1,1.9 0.4,3.8 0.4,5.6 l 0,220.6 c 0,2.2 -0.1,4.4 0.2,6.6 0.5,3.9 0,7.8 0.8,11.7 1.1,5.3 2.5,10.7 5.1,15.4 7.2,14.2 21,23.8 35.6,27 3,0.7 6.5,0.6 8.8,3.2 3.6,3.5 3.2,10.5 -0.9,13.4 -2,1.2 -3.2,3.5 -4.8,5.2 -12.7,15.1 -31.5,23.8 -50.4,24.6 -21.4,1.4 -43.3,-7.3 -58,-24 -2.4,4.1 -5,8.1 -8.3,11.7 -3.2,3.8 -7.1,6.7 -10.9,9.5 -3,1.5 -5.8,3.5 -9,4.7 -8.8,3.9 -18.6,4.7 -28,3.7 -13.5,-1.8 -26,-9 -35.1,-19.7 -10.2,16.4 -28.4,26.8 -47,26.4 -5.3,0.3 -10.5,-1.1 -15.5,-2.2 -12.1,-3.7 -22.9,-11.9 -30.2,-22.7 -7.8,10.9 -19.4,18.4 -31.9,21.4 -9.7,2.2 -20,1.9 -29.5,-1.4 -7.6,-2.5 -14.5,-6.8 -20.4,-12.4 -2,-1.7 -3.5,-4.1 -5.5,-5.9 -12.2,11.4 -28.2,18.2 -44.5,19.1 -18.4,1.3 -37.3,-4.6 -51.6,-17.1 -4.3,-3.6 -8,-7.8 -11.4,-12.4 -1.3,-1.8 -1.6,-4.1 -2.9,-6 -2.5,-3.8 -1.3,-9.4 2.3,-11.9 2.4,-1.9 5.6,-1.5 8.4,-1.9 10.6,-1.5 20.8,-6.3 28.9,-13.6 9.6,-8.7 16.2,-21.7 16.3,-35.2 0.5,-12.7 0.1,-25.4 0.2,-38.1 l 0,-199 c 0.2,-2.8 -0.5,-5.7 -0.4,-8.5 1.1,-30.3 7.9,-60.4 20.2,-87.8 13.7,-30.6 34.2,-57.8 59.6,-78.3 26.5,-21.4 57.8,-35.5 90.5,-40 m 14.4,16.2 c -25.6,1.6 -50.8,9.6 -73.2,22.8 -21.4,12.6 -40.3,30.1 -55.2,50.7 -23.3,31.9 -36.9,71.5 -39.1,111.8 0.3,8.3 0.1,16.7 0.2,25 l 0,148.9 c -0.1,25.6 0.2,51.2 -0.1,76.7 -0.4,11.7 -3.8,23.2 -9.9,33 -9.3,15.5 -24.7,26.3 -41.3,30.9 5.3,5.1 11.4,9.2 18.1,11.9 8.7,3.7 18.3,4.7 27.6,3.9 12.8,-1.1 25.2,-7 34.4,-16.5 1.6,-1.4 1.4,-3.9 2.8,-5.5 2.5,-3.5 7.7,-4.4 11.1,-1.9 2.1,1.4 3.1,4 4.4,6.1 1.8,2.8 3.8,5.5 6,7.9 5.2,5.7 12.1,9.4 19.4,11.1 3.8,0.9 7.7,0.8 11.5,0.7 14.2,-0.9 27.4,-10.7 33,-24.6 2.2,-6.4 11.3,-8.1 15.4,-3 1.7,2 2.1,4.8 3.4,7.2 4.9,10.1 13.7,17.9 23.9,21.1 4.2,1 8.5,1.9 12.8,1.6 14,-0.3 27.5,-9.2 33.7,-22.5 1.6,-2.8 2,-6.3 4,-8.9 2.7,-3.6 8.3,-4.1 11.6,-1.2 1.7,1.3 2.3,3.6 3.6,5.2 1.4,1.8 2.5,3.8 3.9,5.6 7.6,9.7 19.2,16 31.2,15.5 6.3,0.1 12.8,-1.4 18.3,-4.8 5.8,-3.3 11,-8.1 14.7,-14 1.8,-2.8 2.7,-6.1 4.3,-9 1.1,-1.7 0.6,-4 1.6,-5.7 1.7,-3.9 6.2,-5.9 10,-4.4 3.1,1 4.8,4.1 6.8,6.7 3.4,5.7 8,10.6 13.2,14.6 17.1,13 40.9,14.7 59.8,5.1 4.4,-2.2 8.4,-5.3 12.3,-8.5 -10.3,-3.9 -19.6,-10.3 -27.3,-18.5 -6.7,-7.4 -12,-16.5 -14.7,-26.4 -1.9,-6 -2.4,-12.4 -3,-18.7 l 0,-226.8 c 0,-1.9 -0.4,-3.8 -0.4,-5.7 -0.1,-18.8 -2.5,-37.6 -7.4,-55.7 -10.3,-39.1 -32.1,-74.8 -61.8,-100.5 -13.8,-11.7 -29.2,-21.7 -45.7,-28.3 -23.8,-10.2 -49,-14.5 -73.9,-12.9 z"
       id="path64"
       style="fill:#06b2fa;fill-opacity:1"
       inkscape:connector-curvature="0" /><path
       d="m 441.40044,296.9 c -9.5,3.3 -20,3.8 -29.8,1.1 -11.6,-3.1 -22,-10.4 -28.7,-20.4 -6.3,-9.2 -9.4,-20.5 -8.7,-31.6 0.6,-11 5,-21.8 12.3,-30.2 0.5,-0.6 1.2,-0.9 1.9,-1.1 16.7,-4.6 33.4,-9.3 50.1,-14 1.3,-0.4 2.6,0.4 3.9,0.8 12,4.4 22.1,13.5 27.7,24.9 4.2,8.5 6,18.2 5,27.6 -1.1,11.1 -6.1,21.9 -13.9,30 -5.4,5.9 -12.3,10.3 -19.8,12.9 z"
       id="path66"
       style="fill:#06b2fa;fill-opacity:1"
       inkscape:connector-curvature="0" /><path
       d="m 300.20044,299.4 c -11.6,-1.2 -22.6,-6.5 -30.8,-14.9 -12.2,-12.3 -17.4,-31.1 -12.9,-47.9 4.1,-16.7 17.4,-30.9 33.9,-35.8 17.1,4.3 34.1,9.1 51.2,13.6 1.6,0.2 2.5,1.7 3.4,2.8 4.9,6.1 8.4,13.2 10,20.9 2.4,10.3 1.3,21.5 -3,31.2 -4.2,9.8 -11.6,18.1 -20.8,23.4 -9.2,5.5 -20.3,7.9 -31,6.7 z"
       id="path68"
       style="fill:#06b2fa;fill-opacity:1"
       inkscape:connector-curvature="0" /><path
       class="st14"
       d="m 282.80044,345.2 c 0,0 78,36.2 163.2,0"
       stroke-miterlimit="10"
       id="path70"
       style="fill:none;stroke:#06b2fa;stroke-width:14.47340012;stroke-linecap:round;stroke-miterlimit:10;stroke-opacity:1"
       inkscape:connector-curvature="0" /><path
       class="st15"
       d="m 149.30044,428.8 c 0,0 -30.6,-18.5 -57.299995,10.4 -15.1,20.6 -19.1,43.6 -19.1,43.6 l 23.5,-13.9 3.899995,26.3 18.3,-15 10.4,21.1 c 0,0 9.7,-34.1 19,-31.7 9.4,2.3 15.3,-28.6 1.3,-40.8 z"
       stroke-miterlimit="10"
       id="path72"
       style="fill:none;stroke:#06b2fa;stroke-width:14.47340012;stroke-linecap:round;stroke-linejoin:round;stroke-miterlimit:10;stroke-opacity:1"
       inkscape:connector-curvature="0" /><path
       class="st15"
       d="m 647.60044,389.2 c 0,0 -15.9,-34.1 -41.2,-30.8 -25.4,3.4 -9.4,19.3 -9.4,19.3 0,0 -24.8,6 -9.8,20.6 0,0 -17,5.3 -4.9,17.7 12.1,12.4 19.2,23.3 41,20.2 -0.1,0.1 35.9,-8.2 24.3,-47 z"
       stroke-miterlimit="10"
       id="path74"
       style="fill:none;stroke:#06b2fa;stroke-width:14.47340012;stroke-linecap:round;stroke-linejoin:round;stroke-miterlimit:10;stroke-opacity:1"
       inkscape:connector-curvature="0" /><path
       d="m 742.10044,226.3 c 8.8,-22.8 22.9,-53.1 23,-53.4 1.4,-3.1 0.1,-6.7 -3,-8.1 -3.1,-1.4 -6.7,-0.1 -8.1,3 -0.1,0.2 -6.9,14.8 -14,31.4 l -10.3,-20.2 c -1.5,-3 -5.2,-4.2 -8.2,-2.7 -3,1.5 -4.2,5.2 -2.7,8.2 l 14.7,28.8 c 0.1,0.2 0.2,0.4 0.4,0.6 -1.1,2.7 -2.2,5.4 -3.2,8 -6.3,16.3 -7.9,26.7 -8.2,32.7 l -32.9,38 -4.4,-25.9 c -0.6,-3.3 -3.8,-5.6 -7.1,-5 -3.3,0.6 -5.6,3.7 -5,7.1 l 6.1,35.8 -49.8,57.6 c -1.1,1.3 -1.6,2.9 -1.5,4.6 0.2,1.7 1,3.2 2.3,4.2 l 6.7,5.3 c 1.3,1 2.9,1.5 4.5,1.3 1.6,-0.2 3.1,-1 4.1,-2.3 l 86.1,-110.3 32.7,-16.3 c 3,-1.5 4.3,-5.2 2.8,-8.2 -1.5,-3 -5.2,-4.3 -8.2,-2.8 l -22.7,11.3 -0.7,-0.5 c 0.9,-5.1 2.8,-12.4 6.6,-22.2 z"
       id="path76"
       style="fill:#06b2fa;fill-opacity:1"
       inkscape:connector-curvature="0" /><path
       d="m 587.30044,421.3 -10.8,14.9 c -1.1,1.3 -1.6,2.9 -1.5,4.6 0.2,1.7 1,3.2 2.3,4.2 l 6.7,5.3 c 1.3,1 2.9,1.5 4.5,1.3 1.6,-0.2 3.1,-1 4.1,-2.3 l 13.8,-17.6 -11.6,0 z"
       id="path78"
       style="fill:#06b2fa;fill-opacity:1"
       inkscape:connector-curvature="0" /><g
       transform="matrix(2.310084,0,0,2.3100842,341.65388,-818.31607)"
       style="font-style:normal;font-weight:normal;font-size:40px;line-height:125%;font-family:sans-serif;letter-spacing:0px;word-spacing:0px;fill:#06b2fa;fill-opacity:1;stroke:none;stroke-width:1px;stroke-linecap:butt;stroke-linejoin:miter;stroke-opacity:1"
       id="flowRoot4221"><path
         d="m -83.485078,683.71971 4.32,0.63 3.42,1.98 2.07,3.96 0.9,9 -4.41,0.45 -1.89,-0.45 -1.26,-1.71 -0.99,-4.86 -5.94,0 -0.54,9.27 0.27,1.89 0.9,2.16 1.98,3.15 2.97,2.7 1.62,2.16 1.89,1.35 1.71,1.71 1.89,4.5 0.99,4.5 0.63,1.8 0,10.35 -1.98,8.37 -0.72,0.72 -1.62,2.61 -4.05,2.7 -3.33,0.63 -6.12,-0.54 -4.95,-3.42 -1.71,-6.21 -0.54,-3.33 -0.36,-7.65 5.31,-1.08 1.71,0 1.98,12.06 3.15,0.72 3.87,-0.54 0,-5.22 0.63,-4.32 -0.09,-2.16 -0.99,-4.95 -0.99,-2.43 -4.05,-4.59 -5.13,-4.77 -1.35,-2.43 -2.07,-5.49 -0.45,-8.55 0.36,-3.15 0.63,-2.79 1.8,-3.69 2.79,-2.7 2.61,-1.71 5.13,-0.63 z"
         style="font-style:normal;font-variant:normal;font-weight:normal;font-stretch:normal;font-size:90px;font-family:Darkheart;-inkscape-font-specification:Darkheart;letter-spacing:4.4425149px"
         id="path4189" /><path
         d="m -58.117562,684.70971 1.89,-0.09 2.16,-0.45 5.94,1.26 5.04,1.8 0.9,0.63 1.98,2.34 1.17,3.06 0.99,4.5 0.63,1.44 -0.63,4.77 0,5.04 -0.99,5.13 -0.63,2.07 -3.51,4.86 -6.03,2.79 -4.86,0.45 -0.9,0.99 -0.45,11.97 0.09,2.7 -0.36,8.55 0.36,3.15 -4.86,0.36 -3.42,-0.09 -2.43,-0.45 0.63,-15.48 -0.18,-1.08 0.63,-3.06 0,-9.45 0.45,-2.79 0.18,-4.41 0.36,-2.79 0.18,-6.12 -0.18,-3.33 0.54,-4.68 0.27,-10.17 0.81,-3.33 4.23,-0.09 z m 4.59,9.45 -0.36,4.23 0.27,1.26 -0.54,4.86 0.27,1.44 -0.72,9.45 4.5,0.09 2.16,-1.26 1.26,-6.21 0,-10.35 -1.08,-3.06 -3.6,-0.54 -2.16,0.09 z"
         style="font-style:normal;font-variant:normal;font-weight:normal;font-stretch:normal;font-size:90px;font-family:Darkheart;-inkscape-font-specification:Darkheart;letter-spacing:4.4425149px"
         id="path4191" /><path
         d="m -25.579577,684.88971 4.41,-0.54 3.06,0.27 4.5,0 2.16,0.45 2.6100003,0 -0.09,4.14 0.27,4.77 -11.1600003,0 -0.45,4.59 0.45,4.95 -0.81,7.83 4.23,0.54 5.22,-0.36 -1.35,9 -3.42,0.54 -5.22,0 0,4.86 -0.36,3.42 0.36,6.84 -0.36,3.15 0.36,3.69 3.6,-0.36 7.6500003,0.81 0,3.06 -0.5400003,5.49 -2.79,0.09 -1.44,0.45 -4.32,-0.81 -3.96,0.27 -5.67,0 -3.78,-0.27 0.63,-5.49 0,-11.61 0.63,-5.49 -0.18,-2.34 0.9,-8.46 0.27,-6.93 0.36,-1.35 0,-3.69 -0.36,-3.24 0.9,-5.49 -0.09,-1.62 0.45,-8.91 0.54,-2.34 2.79,0.09 z"
         style="font-style:normal;font-variant:normal;font-weight:normal;font-stretch:normal;font-size:90px;font-family:Darkheart;-inkscape-font-specification:Darkheart;letter-spacing:4.4425149px"
         id="path4193" /><path
         d="m 12.648092,692.08971 -3.87,1.8 0,7.38 -1.08,9.72 -0.81,4.32 1.17,10.44 0,5.13 0.54,2.52 0,4.95 1.08,3.87 1.71,1.62 2.97,-0.72 1.62,-1.71 0.81,-2.43 0.27,-10.53 2.88,0.09 5.49,0.72 0.36,3.33 -1.17,7.47 -0.18,3.15 -1.98,4.77 -1.8,2.16 -4.32,2.7 -1.08,0 -3.78,0.9 -3.06,-0.27 -2.16,-0.81 -4.05,-2.52 -1.70999996,-3.6 -0.27,-1.26 -1.44000004,-3.33 -0.27,-11.79 0.81000004,-13.05 0,-10.17 -0.36000004,-2.61 1.53000004,-9 0,-1.44 2.24999996,-4.41 2.79,-3.15 1.71,-0.9 2.79,-0.81 11.07,0 2.16,0.99 2.7,3.78 1.08,10.17 0,7.38 -4.77,0.27 -4.23,-0.99 -0.63,-6.93 -0.72,-5.04 -2.07,-1.44 -1.98,-0.72 z"
         style="font-style:normal;font-variant:normal;font-weight:normal;font-stretch:normal;font-size:90px;font-family:Darkheart;-inkscape-font-specification:Darkheart;letter-spacing:4.4425149px"
         id="path4195" /><path
         d="m 44.543425,684.79971 1.89,-0.45 3.96,0.36 4.95,-0.27 2.16,0.27 -0.45,5.4 -0.54,2.97 -3.78,1.35 -2.43,0.18 -2.52,0.54 0,11.34 -0.27,7.65 0.27,3.06 -0.45,4.23 0.27,3.33 -0.54,9 0,18.18 -2.7,0.72 -5.94,-0.27 -0.18,-3.69 -0.45,-3.51 0.81,-7.56 0,-16.56 0.45,-4.05 -0.27,-4.59 0.9,-11.34 0,-7.38 -2.52,0.63 -5.58,-0.81 0.36,-5.76 0.9,-2.97 11.7,0 z"
         style="font-style:normal;font-variant:normal;font-weight:normal;font-stretch:normal;font-size:90px;font-family:Darkheart;-inkscape-font-specification:Darkheart;letter-spacing:4.4425149px"
         id="path4197" /><path
         d="m 85.54843,751.21971 -5.94,0.81 -1.53,0.45 -0.54,-3.96 -0.09,-3.69 -0.9,-3.69 0.09,-3.24 -0.81,-3.42 -1.35,-10.98 0,-1.71 -2.43,0.54 -0.36,7.2 0.45,2.61 -0.54,6.57 0.27,1.89 -0.45,10.98 -5.94,1.26 -2.79,-0.27 -0.27,-4.5 0.54,-4.32 -0.27,-2.16 0.72,-8.37 0,-11.88 0.36,-3.51 -0.45,-3.87 0.9,-5.85 0,-21.87 2.07,-0.72 2.61,0 5.22,-0.45 6.48,0.27 1.98,0.54 3.15,1.35 1.89,2.43 1.35,5.4 -0.9,16.92 -0.81,2.61 -2.25,4.41 -2.79,1.62 1.8,7.2 0.45,7.02 0.99,3.24 1.08,6.12 0.27,3.33 0.63,2.61 -1.89,1.08 z m -9.45,-37.98 2.16,-0.27 0.72,-1.62 1.26,-9.63 -0.18,-5.58 -0.54,-2.97 -6.39,-0.27 0.09,3.33 -0.36,8.1 -0.27,0.99 0,7.47 3.51,0.45 z"
         style="font-style:normal;font-variant:normal;font-weight:normal;font-stretch:normal;font-size:90px;font-family:Darkheart;-inkscape-font-specification:Darkheart;letter-spacing:4.4425149px"
         id="path4199" /><path
         d="m 100.64751,684.88971 4.41,-0.54 3.06,0.27 4.5,0 2.16,0.45 2.61,0 -0.09,4.14 0.27,4.77 -11.16,0 -0.45,4.59 0.45,4.95 -0.81,7.83 4.23,0.54 5.22,-0.36 -1.35,9 -3.42,0.54 -5.22,0 0,4.86 -0.36,3.42 0.36,6.84 -0.36,3.15 0.36,3.69 3.6,-0.36 7.65,0.81 0,3.06 -0.54,5.49 -2.79,0.09 -1.44,0.45 -4.32,-0.81 -3.96,0.27 -5.669998,0 -3.78,-0.27 0.63,-5.49 0,-11.61 0.63,-5.49 -0.18,-2.34 0.9,-8.46 0.27,-6.93 0.36,-1.35 0,-3.69 -0.36,-3.24 0.9,-5.49 -0.09,-1.62 0.45,-8.91 0.54,-2.34 2.789998,0.09 z"
         style="font-style:normal;font-variant:normal;font-weight:normal;font-stretch:normal;font-size:90px;font-family:Darkheart;-inkscape-font-specification:Darkheart;letter-spacing:4.4425149px"
         id="path4201" /></g></g></svg>